<svg width="1200" height="630" viewBox="0 0 1200 630" xmlns="http://www.w3.org/2000/svg">
  <!-- Background -->
  <rect width="1200" height="630" fill="#f0fdf4"/>
  
  <!-- Gradient background -->
  <defs>
    <linearGradient id="bg-gradient" x1="0%" y1="0%" x2="100%" y2="100%">
      <stop offset="0%" style="stop-color:#f0fdf4;stop-opacity:1" />
      <stop offset="50%" style="stop-color:#dbeafe;stop-opacity:1" />
      <stop offset="100%" style="stop-color:#faf5ff;stop-opacity:1" />
    </linearGradient>
  </defs>
  <rect width="1200" height="630" fill="url(#bg-gradient)"/>
  
  <!-- Main content container -->
  <g transform="translate(100, 150)">
    
    <!-- Logo icon background -->
    <rect x="0" y="40" width="120" height="120" rx="20" fill="#dcfce7" stroke="#bbf7d0" stroke-width="2"/>
    
    <!-- Leaf icon -->
    <g transform="translate(20, 60)">
      <path d="M11 20A7.5 7.5 0 0 1 9.8 6.1C15.5 5 17 2.5 17 2.5s3.5 3.5 3 9.5a11 11 0 0 1-3.5 6.5c-1 1-2.5 1.5-4 1.5s-3-0.5-4-1.5z" 
            fill="none" 
            stroke="#15803d" 
            stroke-width="4" 
            stroke-linecap="round" 
            stroke-linejoin="round" 
            transform="scale(3.5)"/>
      <path d="m9 9 3 3v-6" 
            fill="none" 
            stroke="#15803d" 
            stroke-width="4" 
            stroke-linecap="round" 
            stroke-linejoin="round" 
            transform="scale(3.5)"/>
    </g>
    
    <!-- Main title -->
    <text x="160" y="90" font-family="system-ui, -apple-system, sans-serif" font-size="72" font-weight="700" fill="#15803d">AI Greener Livestock</text>
    
    <!-- Subtitle -->
    <text x="160" y="140" font-family="system-ui, -apple-system, sans-serif" font-size="32" font-weight="400" fill="#374151">Climate-Smart Agriculture Research</text>
    
    <!-- Description -->
    <text x="160" y="190" font-family="system-ui, -apple-system, sans-serif" font-size="28" font-weight="400" fill="#6b7280">USDA-funded AI solutions for methane emission monitoring</text>
    
    <!-- USDA badge -->
    <rect x="160" y="220" width="400" height="40" rx="20" fill="#1e40af" fill-opacity="0.1" stroke="#1e40af" stroke-width="1"/>
    <text x="180" y="245" font-family="system-ui, -apple-system, sans-serif" font-size="18" font-weight="600" fill="#1e40af">USDA NIFA Award #2022-70001-37404</text>
    
  </g>
  
  <!-- Decorative elements -->
  <circle cx="1000" cy="150" r="60" fill="#dcfce7" fill-opacity="0.5"/>
  <circle cx="1050" cy="400" r="40" fill="#dbeafe" fill-opacity="0.5"/>
  <circle cx="950" cy="500" r="30" fill="#faf5ff" fill-opacity="0.5"/>
</svg> 